<svg xmlns="http://www.w3.org/2000/svg" width="42.476" height="42.476" viewBox="0 0 42.476 42.476"><defs><style>.a{fill:none;}.b{fill:#fff;}</style></defs><rect class="a" width="42.476" height="42.476"/><path class="b" d="M7.455,19.265A13.749,13.749,0,0,0,21.294,5.427c0-.209,0-.417-.009-.626a10.188,10.188,0,0,0,2.428-2.514,9.889,9.889,0,0,1-2.8.768A4.861,4.861,0,0,0,23.049.361a9.57,9.57,0,0,1-3.092,1.176,4.869,4.869,0,0,0-8.29,4.439A13.833,13.833,0,0,1,1.65.893,4.856,4.856,0,0,0,3.159,7.38a4.768,4.768,0,0,1-2.21-.607V6.83A4.872,4.872,0,0,0,4.856,11.6a4.8,4.8,0,0,1-2.2.085A4.867,4.867,0,0,0,7.2,15.063,9.768,9.768,0,0,1,1.157,17.15c-.389,0-.778-.028-1.157-.066a13.762,13.762,0,0,0,7.455,2.182" transform="translate(10.8 11.412)"/></svg>