<svg xmlns="http://www.w3.org/2000/svg" width="42.476" height="42.476" viewBox="0 0 42.476 42.476"><defs><style>.a{fill:#fff;}.b{fill:none;}</style></defs><path class="a" d="M5.194,11.251h3.9V23.9h-3.9ZM7.18,5A2.28,2.28,0,1,1,4.9,7.28,2.245,2.245,0,0,1,7.18,5" transform="translate(6.667 5.313)"/><rect class="b" width="42.476" height="42.476"/><path class="a" d="M14,13.368h3.75v1.691h.074A4.116,4.116,0,0,1,21.574,13c3.971,0,4.706,2.647,4.706,6.03v6.913h-3.9V19.766c0-1.471,0-3.383-2.059-3.383S17.971,18,17.971,19.618v6.251H14Z" transform="translate(4.259 3.197)"/></svg>