<svg xmlns="http://www.w3.org/2000/svg" width="42.476" height="42.476" viewBox="0 0 42.476 42.476"><defs><style>.a{fill:none;}.b{fill:#fff;}</style></defs><rect class="a" width="42.476" height="42.476"/><g transform="translate(11.31 10.979)"><path class="b" d="M14.621,5.978c2.815,0,3.148.011,4.26.061a5.834,5.834,0,0,1,1.957.363,3.491,3.491,0,0,1,2,2,5.832,5.832,0,0,1,.363,1.957c.051,1.112.061,1.445.061,4.26s-.011,3.148-.061,4.26a5.834,5.834,0,0,1-.363,1.957,3.491,3.491,0,0,1-2,2,5.832,5.832,0,0,1-1.957.363c-1.111.051-1.445.061-4.26.061s-3.148-.011-4.26-.061A5.835,5.835,0,0,1,8.4,22.839a3.491,3.491,0,0,1-2-2,5.832,5.832,0,0,1-.363-1.957c-.051-1.112-.061-1.445-.061-4.26s.011-3.148.061-4.26A5.834,5.834,0,0,1,6.4,8.4a3.492,3.492,0,0,1,2-2,5.832,5.832,0,0,1,1.957-.363c1.112-.051,1.445-.061,4.26-.061m0-1.9c-2.863,0-3.222.012-4.346.063a7.737,7.737,0,0,0-2.559.49A5.393,5.393,0,0,0,4.632,7.716a7.739,7.739,0,0,0-.49,2.559c-.052,1.124-.064,1.483-.064,4.346s.012,3.222.064,4.346a7.737,7.737,0,0,0,.49,2.559,5.391,5.391,0,0,0,3.083,3.083,7.738,7.738,0,0,0,2.559.49c1.124.051,1.483.063,4.346.063s3.222-.012,4.346-.063a7.737,7.737,0,0,0,2.559-.49,5.391,5.391,0,0,0,3.083-3.083,7.738,7.738,0,0,0,.49-2.559c.051-1.124.063-1.483.063-4.346s-.012-3.222-.063-4.346a7.737,7.737,0,0,0-.49-2.559,5.392,5.392,0,0,0-3.083-3.083,7.739,7.739,0,0,0-2.559-.49c-1.124-.052-1.483-.064-4.346-.064h0Z" transform="translate(-4.079 -4.079)"/><path class="b" d="M132.048,126.635a5.413,5.413,0,1,0,5.413,5.413A5.413,5.413,0,0,0,132.048,126.635Zm0,8.927a3.514,3.514,0,1,1,3.514-3.514,3.514,3.514,0,0,1-3.514,3.514Z" transform="translate(-121.506 -121.506)"/><ellipse class="b" cx="1.265" cy="1.265" rx="1.265" ry="1.265" transform="translate(14.904 3.65)"/></g></svg>